<svg width="31" height="34" viewBox="0 0 31 34" fill="none" xmlns="http://www.w3.org/2000/svg">
<path d="M15.7521 0.0497589C11.788 0.0540675 7.98761 1.63097 5.18497 4.43438C2.38233 7.23778 0.806461 11.0386 0.803231 15.0027C0.738384 15.1198 0.703454 15.2512 0.701538 15.3851L0.701538 32.3881C0.701538 32.6039 0.787251 32.8108 0.93982 32.9634C1.09239 33.116 1.29932 33.2017 1.51508 33.2017C1.73085 33.2017 1.93778 33.116 2.09034 32.9634C2.24291 32.8108 2.32863 32.6039 2.32863 32.3881L2.32863 21.5761C3.50219 23.9713 5.29521 26.0088 7.52169 27.4774C9.74817 28.946 12.327 29.7921 14.9908 29.9281C17.6545 30.064 20.3061 29.4848 22.6705 28.2505C25.0349 27.0162 27.026 25.1718 28.4374 22.9086C29.8487 20.6454 30.6287 18.0458 30.6967 15.3794C30.7646 12.7131 30.118 10.0771 28.8237 7.74497C27.5295 5.4128 25.6349 3.46938 23.3364 2.11627C21.038 0.763163 18.4193 0.049656 15.7521 0.0497589ZM20.9913 11.9519C20.5891 11.9519 20.1958 11.8326 19.8614 11.6091C19.5269 11.3857 19.2662 11.068 19.1123 10.6964C18.9583 10.3247 18.9181 9.91579 18.9965 9.52126C19.075 9.12673 19.2687 8.76433 19.5532 8.47989C19.8376 8.19545 20.2 8.00174 20.5945 7.92326C20.9891 7.84479 21.398 7.88506 21.7696 8.039C22.1413 8.19294 22.4589 8.45363 22.6824 8.78809C22.9059 9.12256 23.0252 9.51578 23.0252 9.91804C23.0252 10.4575 22.8109 10.9748 22.4295 11.3562C22.0481 11.7376 21.5307 11.9519 20.9913 11.9519ZM20.9913 18.0535C21.3936 18.0535 21.7868 18.1728 22.1213 18.3962C22.4557 18.6197 22.7164 18.9374 22.8704 19.309C23.0243 19.6807 23.0646 20.0896 22.9861 20.4841C22.9076 20.8787 22.7139 21.2411 22.4295 21.5255C22.145 21.8099 21.7826 22.0036 21.3881 22.0821C20.9936 22.1606 20.5846 22.1203 20.213 21.9664C19.8414 21.8124 19.5237 21.5518 19.3002 21.2173C19.0767 20.8828 18.9575 20.4896 18.9575 20.0873C18.9575 19.5479 19.1717 19.0306 19.5532 18.6492C19.9346 18.2678 20.4519 18.0535 20.9913 18.0535ZM10.4153 11.9519C10.013 11.9519 9.61976 11.8326 9.2853 11.6091C8.95083 11.3857 8.69015 11.068 8.53621 10.6964C8.38227 10.3247 8.34199 9.91579 8.42047 9.52126C8.49895 9.12673 8.69265 8.76433 8.97709 8.47989C9.26153 8.19545 9.62393 8.00174 10.0185 7.92326C10.413 7.84479 10.8219 7.88506 11.1936 8.039C11.5652 8.19294 11.8829 8.45363 12.1063 8.78809C12.3298 9.12256 12.4491 9.51578 12.4491 9.91804C12.4491 10.4575 12.2348 10.9748 11.8534 11.3562C11.472 11.7376 10.9547 11.9519 10.4153 11.9519ZM10.4153 18.0535C10.8175 18.0535 11.2107 18.1728 11.5452 18.3962C11.8797 18.6197 12.1404 18.9374 12.2943 19.309C12.4482 19.6807 12.4885 20.0896 12.41 20.4841C12.3316 20.8787 12.1378 21.2411 11.8534 21.5255C11.569 21.8099 11.2066 22.0036 10.812 22.0821C10.4175 22.1606 10.0086 22.1203 9.63693 21.9664C9.26529 21.8124 8.94764 21.5518 8.72416 21.2173C8.50067 20.8828 8.38139 20.4896 8.38139 20.0873C8.38139 19.5479 8.59567 19.0306 8.97709 18.6492C9.35852 18.2678 9.87584 18.0535 10.4153 18.0535Z" fill="black"/>
</svg>
