<svg width="30" height="27" viewBox="0 0 30 27" fill="none" xmlns="http://www.w3.org/2000/svg">
<path d="M28.9325 24.2945H20.5767C24.1472 21.9018 26.5031 17.8528 26.5031 13.2515C26.5031 5.92638 20.5767 0 13.2515 0C5.92638 0 0 5.92638 0 13.2515C0 20.5767 5.92638 26.5031 13.2515 26.5031H28.8957C29.5215 26.5031 30 26.0245 30 25.3988C30 24.773 29.5215 24.2945 28.9325 24.2945ZM13.2883 3.31288C15.4969 3.31288 17.2638 5.04294 17.2638 7.17791C17.2638 9.31288 15.4601 11.0429 13.2883 11.0429C11.1166 11.0429 9.31288 9.31288 9.31288 7.17791C9.31288 5.04294 11.0798 3.31288 13.2883 3.31288ZM3.34969 13.2515C3.34969 11.1166 5.07975 9.3865 7.21472 9.3865C9.34969 9.3865 11.0798 11.1166 11.0798 13.2515C11.0798 15.3865 9.34969 17.1166 7.21472 17.1166C5.07975 17.1166 3.34969 15.3865 3.34969 13.2515ZM13.2883 23.1902C11.1534 23.1902 9.42331 21.4601 9.42331 19.3252C9.42331 17.1902 11.1534 15.4601 13.2883 15.4601C15.4233 15.4601 17.1534 17.1902 17.1534 19.3252C17.1534 21.4601 15.3865 23.1902 13.2883 23.1902ZM15.4601 13.2515C15.4601 11.1166 17.1902 9.3865 19.3252 9.3865C21.4601 9.3865 23.1902 11.1166 23.1902 13.2515C23.1902 15.3865 21.4601 17.1166 19.3252 17.1166C17.1902 17.1166 15.4601 15.3865 15.4601 13.2515Z" fill="black"/>
</svg>
