<svg width="34" height="31" viewBox="0 0 34 31" fill="none" xmlns="http://www.w3.org/2000/svg">
<path d="M30.9325 25.2945H25.3527C27.9147 22.7135 29.5031 19.1701 29.5031 15.2515C29.5031 7.3741 23.129 1 15.2515 1C7.3741 1 1 7.3741 1 15.2515C1 23.129 7.3741 29.5031 15.2515 29.5031H30.8957C32.0738 29.5031 33 28.5768 33 27.3988C33 26.243 32.0958 25.2945 30.9325 25.2945ZM15.2883 6.31288C16.9693 6.31288 18.2638 7.61956 18.2638 9.17791C18.2638 10.7303 16.9386 12.0429 15.2883 12.0429C13.6381 12.0429 12.3129 10.7303 12.3129 9.17791C12.3129 7.61956 13.6074 6.31288 15.2883 6.31288ZM6.34969 15.2515C6.34969 13.6688 7.63204 12.3865 9.21472 12.3865C10.7974 12.3865 12.0798 13.6688 12.0798 15.2515C12.0798 16.8342 10.7974 18.1166 9.21472 18.1166C7.63204 18.1166 6.34969 16.8342 6.34969 15.2515ZM15.2883 24.1902C13.7057 24.1902 12.4233 22.9078 12.4233 21.3252C12.4233 19.7425 13.7057 18.4601 15.2883 18.4601C16.871 18.4601 18.1534 19.7425 18.1534 21.3252C18.1534 22.9017 16.8404 24.1902 15.2883 24.1902ZM18.4601 15.2515C18.4601 13.6688 19.7425 12.3865 21.3252 12.3865C22.9078 12.3865 24.1902 13.6688 24.1902 15.2515C24.1902 16.8342 22.9078 18.1166 21.3252 18.1166C19.7425 18.1166 18.4601 16.8342 18.4601 15.2515Z" stroke="white" stroke-width="2"/>
</svg>
